<?xml version="1.0" encoding="UTF-8" standalone="no"?>
<!DOCTYPE svg PUBLIC "-//W3C//DTD SVG 1.1//EN" "http://www.w3.org/Graphics/SVG/1.1/DTD/svg11.dtd">
<svg xmlns="http://www.w3.org/2000/svg" xmlns:xlink="http://www.w3.org/1999/xlink" width="512" height="512" preserveAspectRatio="xMidYMid meet" version="1.1" viewBox="0 0 512 512">
    <defs>
        <path id="bsMvT4tN" d="M455.83 264.24L455.34 272.39L454.52 280.46L453.38 288.42L451.93 296.29L450.18 304.04L448.14 311.67L445.8 319.19L443.17 326.57L440.27 333.82L437.1 340.92L433.66 347.88L429.97 354.68L426.02 361.32L421.82 367.79L417.39 374.09L412.72 380.2L407.83 386.13L402.72 391.86L397.39 397.39L391.86 402.72L386.13 407.83L380.2 412.72L374.09 417.39L367.79 421.82L361.32 426.02L354.68 429.97L347.88 433.66L340.92 437.1L333.82 440.27L326.57 443.17L319.19 445.8L311.67 448.14L304.04 450.18L296.29 451.93L288.42 453.38L280.46 454.52L272.39 455.34L264.24 455.83L256 456L247.76 455.83L239.61 455.34L231.54 454.52L223.58 453.38L215.71 451.93L207.96 450.18L200.33 448.14L192.81 445.8L185.43 443.17L178.18 440.27L171.08 437.1L164.12 433.66L157.32 429.97L150.68 426.02L144.21 421.82L137.91 417.39L131.8 412.72L125.87 407.83L120.14 402.72L114.61 397.39L109.28 391.86L104.17 386.13L99.28 380.2L94.61 374.09L90.18 367.79L85.98 361.32L82.03 354.68L78.34 347.88L74.9 340.92L71.73 333.82L68.83 326.57L66.2 319.19L63.86 311.67L61.82 304.04L60.07 296.29L58.62 288.42L57.48 280.46L56.66 272.39L56.17 264.24L56 256L56.17 247.76L56.66 239.61L57.48 231.54L58.62 223.58L60.07 215.71L61.82 207.96L63.86 200.33L66.2 192.81L68.83 185.43L71.73 178.18L74.9 171.08L78.34 164.12L82.03 157.32L85.98 150.68L90.18 144.21L94.61 137.91L99.28 131.8L104.17 125.87L109.28 120.14L114.61 114.61L120.14 109.28L125.87 104.17L131.8 99.28L137.91 94.61L144.21 90.18L150.68 85.98L157.32 82.03L164.12 78.34L171.08 74.9L178.18 71.73L185.43 68.83L192.81 66.2L200.33 63.86L207.96 61.82L215.71 60.07L223.58 58.62L231.54 57.48L239.61 56.66L247.76 56.17L256 56L264.24 56.17L272.39 56.66L280.46 57.48L288.42 58.62L296.29 60.07L304.04 61.82L311.67 63.86L319.19 66.2L326.57 68.83L333.82 71.73L340.92 74.9L347.88 78.34L354.68 82.03L361.32 85.98L367.79 90.18L374.09 94.61L380.2 99.28L386.13 104.17L391.86 109.28L397.39 114.61L402.72 120.14L407.83 125.87L412.72 131.8L417.39 137.91L421.82 144.21L426.02 150.68L429.97 157.32L433.66 164.12L437.1 171.08L440.27 178.18L443.17 185.43L445.8 192.81L448.14 200.33L450.18 207.96L451.93 215.71L453.38 223.58L454.52 231.54L455.34 239.61L455.83 247.76L456 256L456 256L455.83 264.24Z"/>
        <clipPath id="clipb467F2xbJM">
            <use opacity="1" xlink:href="#bsMvT4tN"/>
        </clipPath>
        <path id="dkZpoiHYf" d="M655.83 502.24L655.34 510.39L654.52 518.46L653.38 526.42L651.93 534.29L650.18 542.04L648.14 549.67L645.8 557.19L643.17 564.57L640.27 571.82L637.1 578.92L633.66 585.88L629.97 592.68L626.02 599.32L621.82 605.79L617.39 612.09L612.72 618.2L607.83 624.13L602.72 629.86L597.39 635.39L591.86 640.72L586.13 645.83L580.2 650.72L574.09 655.39L567.79 659.82L561.32 664.02L554.68 667.97L547.88 671.66L540.92 675.1L533.82 678.27L526.57 681.17L519.19 683.8L511.67 686.14L504.04 688.18L496.29 689.93L488.42 691.38L480.46 692.52L472.39 693.34L464.24 693.83L456 694L447.76 693.83L439.61 693.34L431.54 692.52L423.58 691.38L415.71 689.93L407.96 688.18L400.33 686.14L392.81 683.8L385.43 681.17L378.18 678.27L371.08 675.1L364.12 671.66L357.32 667.97L350.68 664.02L344.21 659.82L337.91 655.39L331.8 650.72L325.87 645.83L320.14 640.72L314.61 635.39L309.28 629.86L304.17 624.13L299.28 618.2L294.61 612.09L290.18 605.79L285.98 599.32L282.03 592.68L278.34 585.88L274.9 578.92L271.73 571.82L268.83 564.57L266.2 557.19L263.86 549.67L261.82 542.04L260.07 534.29L258.62 526.42L257.48 518.46L256.66 510.39L256.17 502.24L256 494L256.17 485.76L256.66 477.61L257.48 469.54L258.62 461.58L260.07 453.71L261.82 445.96L263.86 438.33L266.2 430.81L268.83 423.43L271.73 416.18L274.9 409.08L278.34 402.12L282.03 395.32L285.98 388.68L290.18 382.21L294.61 375.91L299.28 369.8L304.17 363.87L309.28 358.14L314.61 352.61L320.14 347.28L325.87 342.17L331.8 337.28L337.91 332.61L344.21 328.18L350.68 323.98L357.32 320.03L364.12 316.34L371.08 312.9L378.18 309.73L385.43 306.83L392.81 304.2L400.33 301.86L407.96 299.82L415.71 298.07L423.58 296.62L431.54 295.48L439.61 294.66L447.76 294.17L456 294L464.24 294.17L472.39 294.66L480.46 295.48L488.42 296.62L496.29 298.07L504.04 299.82L511.67 301.86L519.19 304.2L526.57 306.83L533.82 309.73L540.92 312.9L547.88 316.34L554.68 320.03L561.32 323.98L567.79 328.18L574.09 332.61L580.2 337.28L586.13 342.17L591.86 347.28L597.39 352.61L602.72 358.14L607.83 363.87L612.72 369.8L617.39 375.91L621.82 382.21L626.02 388.68L629.97 395.32L633.66 402.12L637.1 409.08L640.27 416.18L643.17 423.43L645.8 430.81L648.14 438.33L650.18 445.96L651.93 453.71L653.38 461.58L654.52 469.54L655.34 477.61L655.83 485.76L656 494L656 494L655.83 502.24Z"/>
        <clipPath id="clipa2AZeFUBgu">
            <use opacity="1" xlink:href="#dkZpoiHYf"/>
        </clipPath>
        <path id="c61hVq3wwC" d="M273.21 258.23L275.31 258.46L277.4 258.76L279.48 259.14L281.54 259.61L283.59 260.15L285.62 260.77L287.62 261.47L289.6 262.25L291.56 263.11L293.48 264.05L295.37 265.06L297.23 266.16L299.05 267.33L300.83 268.57L302.57 269.9L304.27 271.3L305.91 272.78L307.51 274.33L309.06 275.97L310.55 277.67L428.23 417.94L512 417.94L511.95 420.25L511.81 422.53L511.59 424.79L511.27 427.02L510.86 429.22L510.37 431.4L509.8 433.53L509.15 435.64L508.41 437.71L507.6 439.74L506.71 441.72L505.75 443.67L504.71 445.58L503.61 447.44L502.44 449.25L501.2 451.01L499.89 452.72L498.52 454.38L497.09 455.99L495.6 457.54L494.05 459.03L492.44 460.46L490.78 461.83L489.07 463.13L487.31 464.37L485.5 465.55L483.64 466.65L481.74 467.69L479.79 468.65L477.8 469.54L475.77 470.35L473.7 471.08L471.6 471.74L469.46 472.31L467.29 472.8L465.08 473.2L462.85 473.52L460.59 473.75L458.31 473.89L456 473.94L405.25 473.94L405.19 473.94L405.14 473.93L405.08 473.93L405.02 473.92L404.97 473.91L404.91 473.9L404.86 473.88L404.81 473.87L404.75 473.85L404.7 473.83L404.65 473.8L404.6 473.78L404.55 473.75L404.51 473.73L404.46 473.7L404.42 473.66L404.37 473.63L404.33 473.6L404.29 473.56L404.25 473.52L404.22 473.48L404.18 473.44L404.14 473.4L404.11 473.36L404.08 473.31L404.05 473.27L404.02 473.22L404 473.17L403.97 473.12L403.95 473.07L403.93 473.02L403.91 472.97L403.89 472.92L403.88 472.86L403.88 472.85L402.44 474.06L402.44 474.06L402.43 474.07L402.43 474.07L402.42 474.07L402.41 474.08L402.41 474.08L402.4 474.08L402.39 474.09L402.39 474.09L402.38 474.09L402.38 474.09L402.37 474.09L402.36 474.1L402.36 474.1L402.35 474.1L402.34 474.1L402.34 474.1L402.33 474.1L402.32 474.1L402.32 474.1L402.31 474.1L402.3 474.1L402.3 474.1L402.29 474.09L402.28 474.09L402.28 474.09L402.27 474.09L402.26 474.09L402.26 474.08L402.25 474.08L402.25 474.08L402.24 474.07L402.23 474.07L402.23 474.07L402.22 474.06L402.22 474.06L402.21 474.05L402.21 474.05L402.2 474.04L402.2 474.04L234.86 274.58L234.76 274.45L234.66 274.32L234.57 274.19L234.48 274.05L234.41 273.91L234.33 273.77L234.27 273.63L234.21 273.49L234.15 273.34L234.1 273.19L234.06 273.04L234.02 272.89L233.99 272.74L233.97 272.59L233.95 272.44L233.94 272.28L233.93 272.13L233.93 271.98L233.93 271.82L233.94 271.67L233.96 271.52L233.98 271.37L234.01 271.22L234.04 271.07L234.08 270.92L234.13 270.77L234.18 270.63L234.23 270.48L234.3 270.34L234.36 270.2L234.44 270.07L234.52 269.93L234.6 269.8L234.69 269.67L234.79 269.55L234.89 269.42L234.9 269.42L236.64 268.13L238.48 266.87L240.36 265.7L242.27 264.62L244.22 263.62L246.19 262.7L248.18 261.86L250.2 261.11L252.24 260.44L254.3 259.85L256.37 259.34L258.46 258.92L260.56 258.58L262.66 258.32L264.77 258.14L266.88 258.04L269 258.02L271.11 258.09L273.21 258.23ZM235.11 269.19L235 269.3L234.9 269.42L234.83 269.47L233.06 270.89L235.35 268.97L235.23 269.08L235.11 269.19Z"/>
    </defs>
    <g>
        <g>
            <g>
                <use fill="#ffffff" fill-opacity="0" opacity="1" xlink:href="#bsMvT4tN"/>
                <g clip-path="url(#clipb467F2xbJM)">
                    <use fill-opacity="0" stroke="#ffffff" stroke-opacity="1" stroke-width="112" opacity="1" xlink:href="#bsMvT4tN"/>
                </g>
            </g>
            <g>
                <use fill="#ffffff" fill-opacity="0" opacity="1" xlink:href="#dkZpoiHYf"/>
                <g clip-path="url(#clipa2AZeFUBgu)">
                    <use fill-opacity="0" stroke="#51ea4c" stroke-opacity="0" stroke-width="112" opacity="1" xlink:href="#dkZpoiHYf"/>
                </g>
            </g>
            <g>
                <use fill="#ffffff" fill-opacity="1" opacity="1" xlink:href="#c61hVq3wwC"/>
            </g>
        </g>
    </g>
</svg>
